<?xml version="1.0" encoding="UTF-8"?>
<svg width="229px" height="45px" viewBox="0 0 229 45" version="1.1" xmlns="http://www.w3.org/2000/svg" xmlns:xlink="http://www.w3.org/1999/xlink">
    <!-- Generator: sketchtool 64 (101010) - https://sketch.com -->
    <title>BADAD10A-F292-4C5F-8373-5CB913721751@2x</title>
    <desc>Created with sketchtool.</desc>
    <g id="Desk" stroke="none" stroke-width="1" fill="none" fill-rule="evenodd">
        <g id="100---Home-v1" transform="translate(-116.000000, -3280.000000)">
            <g id="Rodapé" transform="translate(0.000000, 3198.000000)">
                <g id="Elements/Logo/Color" transform="translate(116.000000, 82.000000)">
                    <polygon id="Fill-1" fill="#FFCC31" points="0.007 10.8164 44.651 10.8164 44.651 0.0014 0.007 0.0014"></polygon>
                    <path d="M92.5632,32.8036 L78.7862,32.8036 L83.4672,16.3306 L96.9182,16.3306 L95.8242,20.1526 L87.7912,20.1526 L87.1112,22.5226 L93.9262,22.5226 L92.8282,26.3736 L86.0152,26.3736 L85.2752,28.9516 L93.6582,28.9516 L92.5632,32.8036 Z M0.0072,44.5126 L44.6492,44.5126 L44.6492,16.2256 L0.0072,16.2256 L0.0072,44.5126 Z M70.9372,27.6486 L70.9372,27.6486 C70.6392,27.6796 70.3442,27.6796 70.0482,27.6796 L67.3222,27.6796 L65.8712,32.8036 L60.4492,32.8036 L65.1582,16.3306 L70.9332,16.3306 L73.0972,16.3306 C77.8362,16.3306 79.4972,18.4926 78.5492,21.8696 C77.6002,25.2186 75.1422,27.3816 70.9372,27.6486 L70.9372,27.6486 Z M70.9372,20.1526 L70.9372,20.1526 L69.4572,20.1526 L68.4452,23.8196 L70.9332,23.8276 L70.9332,23.8246 C72.0602,23.7666 73.0082,23.2326 73.3932,21.9016 C73.8092,20.3606 72.1482,20.1526 70.9932,20.1526 L70.9372,20.1526 Z M201.2392,27.2026 L202.9562,27.2026 L202.8972,21.2796 L201.2392,24.1816 L199.5482,27.2026 L201.2392,27.2026 Z M201.2392,16.8636 L201.5942,16.3306 L207.1032,16.3306 L208.3202,32.8036 L202.9272,32.8036 L202.9272,30.6406 L201.2392,30.6406 L197.5372,30.6406 L196.2922,32.8036 L191.3122,32.8036 L190.9882,32.8036 L191.3122,32.3016 L201.2392,16.8636 Z M228.5852,21.1006 C229.0002,18.2266 227.5792,15.8856 223.0142,15.8856 C218.8672,15.8856 215.3402,17.6336 214.3642,21.1596 C212.5572,27.4416 222.5422,25.7226 221.8302,28.2416 C221.6222,29.0116 220.5862,29.4556 219.2512,29.4556 C218.7182,29.4556 218.1862,29.3076 217.8312,29.0416 C217.4462,28.7436 217.2382,28.3286 217.2972,27.7376 L212.1132,27.7376 C211.4032,30.6996 213.5042,33.2476 217.8602,33.2476 C222.3922,33.2476 226.1262,31.3816 227.1922,27.5606 C228.9122,21.5746 218.9872,23.0866 219.6962,20.6266 C219.8442,20.0346 220.4662,19.6776 221.6812,19.6776 C222.1862,19.6776 222.6602,19.7676 222.9852,19.9746 C223.3112,20.1816 223.5172,20.5376 223.4292,21.1006 L228.5852,21.1006 Z M191.3122,21.3376 C191.3742,21.2186 191.4022,21.1306 191.4302,21.0116 C191.7872,19.7676 191.7872,18.7606 191.3122,18.0196 C190.6012,16.8636 188.7952,16.3306 185.4472,16.3306 L183.6392,16.3306 L177.6552,16.3306 L172.9742,32.8036 L178.3652,32.8036 L180.0242,27.0556 L181.6542,27.0556 C182.6632,27.0556 183.2842,27.1756 183.6392,27.4416 C184.2042,27.8566 184.1142,28.6266 183.7282,29.9286 C183.6982,30.0486 183.6692,30.1386 183.6392,30.2266 C183.2842,31.5286 183.1652,32.4776 183.1972,32.8036 L183.6392,32.8036 L188.6752,32.8036 L188.7952,32.3016 C188.1732,32.3016 188.4392,31.5896 189.0602,29.4266 C190.0092,26.1076 189.0602,25.6926 187.5192,25.0416 C189.4782,24.5376 190.7502,23.0866 191.3122,21.3376 L191.3122,21.3376 Z M183.6392,23.4416 C185.0332,23.3516 185.8912,22.9076 186.1882,21.8696 C186.5122,20.7156 185.7432,20.1526 184.5012,20.1526 L183.6392,20.1526 L181.9802,20.1526 L181.0332,23.4416 L183.1652,23.4416 L183.6392,23.4416 Z M163.1672,32.7746 C166.8992,32.5666 169.6542,31.2336 170.6032,27.8566 C171.1072,26.0496 170.6032,24.5076 168.9452,24.0646 C170.1882,23.4106 171.6412,22.1666 172.1162,20.4776 C173.0332,17.1896 170.3342,16.3306 166.6332,16.3306 L163.1672,16.3306 L158.7222,16.3306 L154.0412,32.8036 L162.1012,32.8036 C162.4562,32.8036 162.8102,32.8036 163.1672,32.7746 L163.1672,32.7746 Z M163.1672,20.1526 L164.9442,20.1526 C166.0992,20.1526 167.1352,20.1816 166.7822,21.4846 C166.5132,22.4326 165.5942,22.9076 164.5002,22.9076 L163.1672,22.9076 L162.2782,22.9076 L163.0482,20.1526 L163.1672,20.1526 Z M163.1672,25.9296 C164.8562,25.9296 166.0992,26.0196 165.6842,27.4416 C165.3582,28.6266 164.3792,28.9236 163.1672,28.9516 L162.9002,28.9516 L160.5582,28.9516 L161.4182,25.9296 L163.1362,25.9296 L163.1672,25.9296 Z M143.8482,28.9826 C145.4482,28.3606 146.5162,26.6416 147.1092,24.4786 C147.7592,22.2256 147.5232,19.8576 145.1242,19.9156 C144.6472,19.9156 144.2342,20.0036 143.8482,20.1526 C142.1612,20.8336 141.1242,22.7886 140.6492,24.4786 C140.0272,26.5836 139.9372,29.2196 142.5132,29.2196 C142.9902,29.2196 143.4332,29.1306 143.8482,28.9826 L143.8482,28.9826 Z M143.8482,16.1536 C144.6472,15.9756 145.4792,15.8856 146.3082,15.8856 C152.2052,15.8856 153.7752,20.1236 152.5292,24.4786 C151.1972,29.1306 147.7592,32.0926 143.8482,32.9816 C143.0472,33.1596 142.2182,33.2476 141.3602,33.2476 C136.2042,33.2476 133.6582,30.0486 135.2272,24.4176 C136.4702,20.0946 139.7892,17.0416 143.8482,16.1536 L143.8482,16.1536 Z M124.8562,30.2266 C124.8882,30.1386 124.9152,30.0486 124.9472,29.9286 C125.3312,28.6266 125.4222,27.8566 124.8562,27.4416 C124.5012,27.1756 123.8792,27.0556 122.8712,27.0556 L121.2432,27.0556 L119.6422,32.8036 L114.8432,32.8036 L114.2192,32.8036 L114.8432,30.6406 L118.9032,16.3306 L124.8562,16.3306 L126.6642,16.3306 C132.1762,16.3306 133.5382,17.8116 132.6492,21.0116 C132.0862,22.9076 130.8112,24.5076 128.7382,25.0416 C130.2792,25.6926 131.2272,26.1076 130.2792,29.4266 C129.6562,31.5896 129.3902,32.3016 130.0422,32.3016 L129.8942,32.8036 L124.8562,32.8036 L124.4142,32.8036 C124.3832,32.4776 124.5302,31.5286 124.8562,30.2266 L124.8562,30.2266 Z M124.8562,23.4416 C126.2502,23.3516 127.1082,22.9076 127.4052,21.8696 C127.7312,20.7156 126.9612,20.1526 125.7172,20.1526 L124.8562,20.1526 L123.1992,20.1526 L122.2502,23.4416 L124.3832,23.4416 L124.8562,23.4416 Z M114.8432,18.4926 L115.4662,16.3306 L114.8432,16.3306 L100.3242,16.3306 L99.1112,20.6566 L103.9682,20.6566 L100.5032,32.8036 L105.8962,32.8036 L109.3632,20.6566 L114.2192,20.6566 L114.8432,18.4926 Z" id="Fill-2" fill="#008C4F"></path>
                    <path d="M44.653,16.2226 L44.653,10.8096 L0,10.8096 L0,16.2226 L8.594,16.2226 L3.832,32.6896 L13.578,32.6896 C17.799,32.6896 18.534,31.7046 19.39,30.9866 C20.537,30.0256 21.149,27.7426 20.635,26.1536 C20.27,25.0296 19.208,24.3476 19.092,24.3156 C20.411,23.7036 21.178,22.3616 21.273,22.1636 C21.764,21.1466 22.144,19.3036 20.925,17.8206 C19.914,16.5886 17.948,16.2486 16.522,16.2226 L26.954,16.2226 L22.177,32.7226 L27.013,32.7226 L28.78,26.4666 L31.541,26.4666 C33.547,26.4666 33.366,27.7166 33.417,28.2536 L33.572,32.8546 L38.062,32.8526 C38.062,32.8526 37.859,27.6906 37.843,27.3126 C37.782,25.9866 36.904,25.3886 36.156,25.3886 C37.594,24.9996 38.842,23.6956 39.341,22.8566 C39.916,21.8916 40.349,20.3556 39.782,18.8316 C38.954,16.6176 36.826,16.2486 35.335,16.2226 L44.653,16.2226 Z M30.711,19.5416 L34.228,19.5416 C35.896,19.5416 35.962,20.6736 35.962,20.9966 C35.962,21.7506 35.299,23.2306 33.273,23.2306 L29.693,23.2306 C29.693,23.2306 30.693,19.6316 30.711,19.5416 L30.711,19.5416 Z M10.642,25.7386 L13.858,25.7386 C15.434,25.7386 15.524,26.1656 15.743,26.5336 C15.958,26.8956 15.859,27.6666 15.71,27.9316 C15.52,28.2646 15.203,29.2976 13.187,29.2976 L9.614,29.2976 C9.614,29.2976 10.64,25.7436 10.642,25.7386 L10.642,25.7386 Z M12.401,19.5216 L16.123,19.5216 C16.862,19.5216 17.532,19.9966 17.532,20.7776 C17.532,21.8326 16.69,22.5726 15.524,22.5726 L11.542,22.5726 L12.401,19.5216 Z" id="Fill-5" fill="#FFFFFF"></path>
                </g>
            </g>
        </g>
    </g>
</svg>